<mxfile host="app.diagrams.net" modified="2022-12-28T06:29:04.688Z" agent="5.0 (Windows NT 10.0; Win64; x64) AppleWebKit/537.36 (KHTML, like Gecko) Chrome/106.0.0.0 YaBrowser/22.11.5.716 Yowser/2.5 Safari/537.36" etag="mPXOYKXLhEg5tHixzM84" version="20.7.4" type="github">
  <diagram id="sq5tUa9uOOfnAcCKqO6m" name="Страница 1">
    <mxGraphModel dx="1155" dy="659" grid="1" gridSize="10" guides="1" tooltips="1" connect="1" arrows="1" fold="1" page="1" pageScale="1" pageWidth="827" pageHeight="1169" math="0" shadow="0">
      <root>
        <mxCell id="0" />
        <mxCell id="1" parent="0" />
        <mxCell id="Tr-PWbZYXiWk-YHRKpnP-8" style="edgeStyle=orthogonalEdgeStyle;rounded=0;orthogonalLoop=1;jettySize=auto;html=1;exitX=0.5;exitY=1;exitDx=0;exitDy=0;entryX=0.5;entryY=0;entryDx=0;entryDy=0;endArrow=none;endFill=0;" edge="1" parent="1" source="co63qGfx2RiiY_eD4GLx-1" target="Tr-PWbZYXiWk-YHRKpnP-1">
          <mxGeometry relative="1" as="geometry" />
        </mxCell>
        <mxCell id="Tr-PWbZYXiWk-YHRKpnP-11" value="Получает" style="edgeLabel;html=1;align=center;verticalAlign=middle;resizable=0;points=[];fontSize=9;" vertex="1" connectable="0" parent="Tr-PWbZYXiWk-YHRKpnP-8">
          <mxGeometry x="-0.2162" y="-1" relative="1" as="geometry">
            <mxPoint as="offset" />
          </mxGeometry>
        </mxCell>
        <mxCell id="co63qGfx2RiiY_eD4GLx-1" value="Покупатель" style="swimlane;fontStyle=2;align=center;verticalAlign=top;childLayout=stackLayout;horizontal=1;startSize=26;horizontalStack=0;resizeParent=1;resizeLast=0;collapsible=1;marginBottom=0;rounded=0;shadow=0;strokeWidth=1;" parent="1" vertex="1">
          <mxGeometry x="20" y="70" width="160" height="230" as="geometry">
            <mxRectangle x="230" y="140" width="160" height="26" as="alternateBounds" />
          </mxGeometry>
        </mxCell>
        <mxCell id="co63qGfx2RiiY_eD4GLx-2" value="Имя" style="text;align=left;verticalAlign=top;spacingLeft=4;spacingRight=4;overflow=hidden;rotatable=0;points=[[0,0.5],[1,0.5]];portConstraint=eastwest;" parent="co63qGfx2RiiY_eD4GLx-1" vertex="1">
          <mxGeometry y="26" width="160" height="26" as="geometry" />
        </mxCell>
        <mxCell id="co63qGfx2RiiY_eD4GLx-3" value="Телефон" style="text;align=left;verticalAlign=top;spacingLeft=4;spacingRight=4;overflow=hidden;rotatable=0;points=[[0,0.5],[1,0.5]];portConstraint=eastwest;rounded=0;shadow=0;html=0;" parent="co63qGfx2RiiY_eD4GLx-1" vertex="1">
          <mxGeometry y="52" width="160" height="26" as="geometry" />
        </mxCell>
        <mxCell id="co63qGfx2RiiY_eD4GLx-4" value="Эл. Почта" style="text;align=left;verticalAlign=top;spacingLeft=4;spacingRight=4;overflow=hidden;rotatable=0;points=[[0,0.5],[1,0.5]];portConstraint=eastwest;rounded=0;shadow=0;html=0;" parent="co63qGfx2RiiY_eD4GLx-1" vertex="1">
          <mxGeometry y="78" width="160" height="26" as="geometry" />
        </mxCell>
        <mxCell id="co63qGfx2RiiY_eD4GLx-5" value="Адрес" style="text;align=left;verticalAlign=top;spacingLeft=4;spacingRight=4;overflow=hidden;rotatable=0;points=[[0,0.5],[1,0.5]];portConstraint=eastwest;" parent="co63qGfx2RiiY_eD4GLx-1" vertex="1">
          <mxGeometry y="104" width="160" height="28" as="geometry" />
        </mxCell>
        <mxCell id="co63qGfx2RiiY_eD4GLx-6" value="" style="line;html=1;strokeWidth=1;align=left;verticalAlign=middle;spacingTop=-1;spacingLeft=3;spacingRight=3;rotatable=0;labelPosition=right;points=[];portConstraint=eastwest;" parent="co63qGfx2RiiY_eD4GLx-1" vertex="1">
          <mxGeometry y="132" width="160" height="8" as="geometry" />
        </mxCell>
        <mxCell id="co63qGfx2RiiY_eD4GLx-7" value="Добавить клиента" style="text;align=left;verticalAlign=top;spacingLeft=4;spacingRight=4;overflow=hidden;rotatable=0;points=[[0,0.5],[1,0.5]];portConstraint=eastwest;" parent="co63qGfx2RiiY_eD4GLx-1" vertex="1">
          <mxGeometry y="140" width="160" height="30" as="geometry" />
        </mxCell>
        <mxCell id="co63qGfx2RiiY_eD4GLx-8" value="Удалить клиента" style="text;align=left;verticalAlign=top;spacingLeft=4;spacingRight=4;overflow=hidden;rotatable=0;points=[[0,0.5],[1,0.5]];portConstraint=eastwest;" parent="co63qGfx2RiiY_eD4GLx-1" vertex="1">
          <mxGeometry y="170" width="160" height="28" as="geometry" />
        </mxCell>
        <mxCell id="co63qGfx2RiiY_eD4GLx-9" value="Получить информацию" style="text;align=left;verticalAlign=top;spacingLeft=4;spacingRight=4;overflow=hidden;rotatable=0;points=[[0,0.5],[1,0.5]];portConstraint=eastwest;" parent="co63qGfx2RiiY_eD4GLx-1" vertex="1">
          <mxGeometry y="198" width="160" height="28" as="geometry" />
        </mxCell>
        <mxCell id="co63qGfx2RiiY_eD4GLx-10" value="Состав заказа" style="swimlane;fontStyle=0;align=center;verticalAlign=top;childLayout=stackLayout;horizontal=1;startSize=26;horizontalStack=0;resizeParent=1;resizeLast=0;collapsible=1;marginBottom=0;rounded=0;shadow=0;strokeWidth=1;" parent="1" vertex="1">
          <mxGeometry x="630" y="50" width="160" height="190" as="geometry">
            <mxRectangle x="130" y="380" width="160" height="26" as="alternateBounds" />
          </mxGeometry>
        </mxCell>
        <mxCell id="co63qGfx2RiiY_eD4GLx-11" value="Номер пункта заказа" style="text;align=left;verticalAlign=top;spacingLeft=4;spacingRight=4;overflow=hidden;rotatable=0;points=[[0,0.5],[1,0.5]];portConstraint=eastwest;" parent="co63qGfx2RiiY_eD4GLx-10" vertex="1">
          <mxGeometry y="26" width="160" height="26" as="geometry" />
        </mxCell>
        <mxCell id="co63qGfx2RiiY_eD4GLx-12" value="Количество товара" style="text;align=left;verticalAlign=top;spacingLeft=4;spacingRight=4;overflow=hidden;rotatable=0;points=[[0,0.5],[1,0.5]];portConstraint=eastwest;rounded=0;shadow=0;html=0;" parent="co63qGfx2RiiY_eD4GLx-10" vertex="1">
          <mxGeometry y="52" width="160" height="26" as="geometry" />
        </mxCell>
        <mxCell id="co63qGfx2RiiY_eD4GLx-13" value="Цена" style="text;align=left;verticalAlign=top;spacingLeft=4;spacingRight=4;overflow=hidden;rotatable=0;points=[[0,0.5],[1,0.5]];portConstraint=eastwest;" parent="co63qGfx2RiiY_eD4GLx-10" vertex="1">
          <mxGeometry y="78" width="160" height="26" as="geometry" />
        </mxCell>
        <mxCell id="co63qGfx2RiiY_eD4GLx-14" value="" style="line;html=1;strokeWidth=1;align=left;verticalAlign=middle;spacingTop=-1;spacingLeft=3;spacingRight=3;rotatable=0;labelPosition=right;points=[];portConstraint=eastwest;" parent="co63qGfx2RiiY_eD4GLx-10" vertex="1">
          <mxGeometry y="104" width="160" height="8" as="geometry" />
        </mxCell>
        <mxCell id="co63qGfx2RiiY_eD4GLx-15" value="Создать строку заказа" style="text;align=left;verticalAlign=top;spacingLeft=4;spacingRight=4;overflow=hidden;rotatable=0;points=[[0,0.5],[1,0.5]];portConstraint=eastwest;fontStyle=0" parent="co63qGfx2RiiY_eD4GLx-10" vertex="1">
          <mxGeometry y="112" width="160" height="26" as="geometry" />
        </mxCell>
        <mxCell id="co63qGfx2RiiY_eD4GLx-16" value="Добавить информацию" style="text;align=left;verticalAlign=top;spacingLeft=4;spacingRight=4;overflow=hidden;rotatable=0;points=[[0,0.5],[1,0.5]];portConstraint=eastwest;fontStyle=0" parent="co63qGfx2RiiY_eD4GLx-10" vertex="1">
          <mxGeometry y="138" width="160" height="26" as="geometry" />
        </mxCell>
        <mxCell id="co63qGfx2RiiY_eD4GLx-17" value="Получить информацию" style="text;align=left;verticalAlign=top;spacingLeft=4;spacingRight=4;overflow=hidden;rotatable=0;points=[[0,0.5],[1,0.5]];portConstraint=eastwest;fontStyle=0" parent="co63qGfx2RiiY_eD4GLx-10" vertex="1">
          <mxGeometry y="164" width="160" height="26" as="geometry" />
        </mxCell>
        <mxCell id="co63qGfx2RiiY_eD4GLx-18" style="edgeStyle=none;rounded=0;orthogonalLoop=1;jettySize=auto;html=1;exitX=0.5;exitY=1;exitDx=0;exitDy=0;entryX=0.499;entryY=0.25;entryDx=0;entryDy=0;entryPerimeter=0;fontSize=12;endArrow=none;endFill=0;startArrow=open;startFill=0;" parent="1" source="co63qGfx2RiiY_eD4GLx-19" target="co63qGfx2RiiY_eD4GLx-34" edge="1">
          <mxGeometry relative="1" as="geometry" />
        </mxCell>
        <mxCell id="co63qGfx2RiiY_eD4GLx-19" value="Заказ" style="swimlane;fontStyle=0;align=center;verticalAlign=top;childLayout=stackLayout;horizontal=1;startSize=26;horizontalStack=0;resizeParent=1;resizeLast=0;collapsible=1;marginBottom=0;rounded=0;shadow=0;strokeWidth=1;" parent="1" vertex="1">
          <mxGeometry x="308" y="70" width="160" height="170" as="geometry">
            <mxRectangle x="550" y="140" width="160" height="26" as="alternateBounds" />
          </mxGeometry>
        </mxCell>
        <mxCell id="co63qGfx2RiiY_eD4GLx-20" value="Номер заказа" style="text;align=left;verticalAlign=top;spacingLeft=4;spacingRight=4;overflow=hidden;rotatable=0;points=[[0,0.5],[1,0.5]];portConstraint=eastwest;" parent="co63qGfx2RiiY_eD4GLx-19" vertex="1">
          <mxGeometry y="26" width="160" height="26" as="geometry" />
        </mxCell>
        <mxCell id="co63qGfx2RiiY_eD4GLx-21" value="Дата оформления" style="text;align=left;verticalAlign=top;spacingLeft=4;spacingRight=4;overflow=hidden;rotatable=0;points=[[0,0.5],[1,0.5]];portConstraint=eastwest;rounded=0;shadow=0;html=0;" parent="co63qGfx2RiiY_eD4GLx-19" vertex="1">
          <mxGeometry y="52" width="160" height="26" as="geometry" />
        </mxCell>
        <mxCell id="co63qGfx2RiiY_eD4GLx-22" value="Дата выпонения" style="text;align=left;verticalAlign=top;spacingLeft=4;spacingRight=4;overflow=hidden;rotatable=0;points=[[0,0.5],[1,0.5]];portConstraint=eastwest;rounded=0;shadow=0;html=0;" parent="co63qGfx2RiiY_eD4GLx-19" vertex="1">
          <mxGeometry y="78" width="160" height="26" as="geometry" />
        </mxCell>
        <mxCell id="co63qGfx2RiiY_eD4GLx-23" value="" style="line;html=1;strokeWidth=1;align=left;verticalAlign=middle;spacingTop=-1;spacingLeft=3;spacingRight=3;rotatable=0;labelPosition=right;points=[];portConstraint=eastwest;" parent="co63qGfx2RiiY_eD4GLx-19" vertex="1">
          <mxGeometry y="104" width="160" height="8" as="geometry" />
        </mxCell>
        <mxCell id="co63qGfx2RiiY_eD4GLx-24" value="Создание нового заказа" style="text;align=left;verticalAlign=top;spacingLeft=4;spacingRight=4;overflow=hidden;rotatable=0;points=[[0,0.5],[1,0.5]];portConstraint=eastwest;" parent="co63qGfx2RiiY_eD4GLx-19" vertex="1">
          <mxGeometry y="112" width="160" height="26" as="geometry" />
        </mxCell>
        <mxCell id="co63qGfx2RiiY_eD4GLx-25" value="Получить информацию" style="text;align=left;verticalAlign=top;spacingLeft=4;spacingRight=4;overflow=hidden;rotatable=0;points=[[0,0.5],[1,0.5]];portConstraint=eastwest;" parent="co63qGfx2RiiY_eD4GLx-19" vertex="1">
          <mxGeometry y="138" width="160" height="26" as="geometry" />
        </mxCell>
        <mxCell id="co63qGfx2RiiY_eD4GLx-26" value="" style="endArrow=none;shadow=0;strokeWidth=1;rounded=0;endFill=0;edgeStyle=elbowEdgeStyle;elbow=vertical;" parent="1" source="co63qGfx2RiiY_eD4GLx-1" target="co63qGfx2RiiY_eD4GLx-19" edge="1">
          <mxGeometry x="0.5" y="41" relative="1" as="geometry">
            <mxPoint x="180" y="142" as="sourcePoint" />
            <mxPoint x="340" y="142" as="targetPoint" />
            <mxPoint x="-40" y="32" as="offset" />
          </mxGeometry>
        </mxCell>
        <mxCell id="co63qGfx2RiiY_eD4GLx-27" value="1" style="resizable=0;align=left;verticalAlign=bottom;labelBackgroundColor=none;fontSize=8;" parent="co63qGfx2RiiY_eD4GLx-26" connectable="0" vertex="1">
          <mxGeometry x="-1" relative="1" as="geometry">
            <mxPoint y="-5" as="offset" />
          </mxGeometry>
        </mxCell>
        <mxCell id="co63qGfx2RiiY_eD4GLx-28" value="1..n" style="resizable=0;align=right;verticalAlign=bottom;labelBackgroundColor=none;fontSize=8;" parent="co63qGfx2RiiY_eD4GLx-26" connectable="0" vertex="1">
          <mxGeometry x="1" relative="1" as="geometry">
            <mxPoint x="-7" y="-5" as="offset" />
          </mxGeometry>
        </mxCell>
        <mxCell id="co63qGfx2RiiY_eD4GLx-29" value="Оформляет" style="text;html=1;resizable=0;points=[];;align=center;verticalAlign=middle;labelBackgroundColor=none;rounded=0;shadow=0;strokeWidth=1;fontSize=12;" parent="co63qGfx2RiiY_eD4GLx-26" vertex="1" connectable="0">
          <mxGeometry x="0.5" y="49" relative="1" as="geometry">
            <mxPoint x="-38" y="40" as="offset" />
          </mxGeometry>
        </mxCell>
        <mxCell id="co63qGfx2RiiY_eD4GLx-30" style="rounded=0;orthogonalLoop=1;jettySize=auto;html=1;exitX=0;exitY=0.5;exitDx=0;exitDy=0;entryX=1;entryY=0.5;entryDx=0;entryDy=0;dashed=1;fontSize=12;endArrow=diamondThin;endFill=1;" parent="1" source="co63qGfx2RiiY_eD4GLx-13" target="co63qGfx2RiiY_eD4GLx-24" edge="1">
          <mxGeometry relative="1" as="geometry" />
        </mxCell>
        <mxCell id="co63qGfx2RiiY_eD4GLx-31" value="&lt;font style=&quot;font-size: 8px;&quot;&gt;1&lt;/font&gt;" style="edgeLabel;html=1;align=center;verticalAlign=middle;resizable=0;points=[];fontSize=12;" parent="co63qGfx2RiiY_eD4GLx-30" vertex="1" connectable="0">
          <mxGeometry x="0.816" y="-2" relative="1" as="geometry">
            <mxPoint y="-8" as="offset" />
          </mxGeometry>
        </mxCell>
        <mxCell id="co63qGfx2RiiY_eD4GLx-32" value="&lt;font style=&quot;font-size: 8px;&quot;&gt;1..n&lt;/font&gt;" style="edgeLabel;html=1;align=center;verticalAlign=middle;resizable=0;points=[];fontSize=12;" parent="co63qGfx2RiiY_eD4GLx-30" vertex="1" connectable="0">
          <mxGeometry x="-0.829" y="1" relative="1" as="geometry">
            <mxPoint y="-17" as="offset" />
          </mxGeometry>
        </mxCell>
        <mxCell id="co63qGfx2RiiY_eD4GLx-33" value="Входит в" style="edgeLabel;html=1;align=center;verticalAlign=middle;resizable=0;points=[];fontSize=12;" parent="co63qGfx2RiiY_eD4GLx-30" vertex="1" connectable="0">
          <mxGeometry x="0.1093" y="-1" relative="1" as="geometry">
            <mxPoint x="10" as="offset" />
          </mxGeometry>
        </mxCell>
        <mxCell id="co63qGfx2RiiY_eD4GLx-34" value="&lt;font style=&quot;font-size: 8px;&quot;&gt;Менеджер по работе с заказами&lt;/font&gt;" style="ellipse;shape=umlControl;whiteSpace=wrap;html=1;fontSize=12;" parent="1" vertex="1">
          <mxGeometry x="353" y="310" width="70" height="80" as="geometry" />
        </mxCell>
        <mxCell id="co63qGfx2RiiY_eD4GLx-35" value="&lt;font style=&quot;font-size: 8px;&quot;&gt;Добавление нового заказа&lt;/font&gt;" style="shape=umlBoundary;whiteSpace=wrap;html=1;fontSize=12;" parent="1" vertex="1">
          <mxGeometry x="160" y="320" width="80" height="70" as="geometry" />
        </mxCell>
        <mxCell id="co63qGfx2RiiY_eD4GLx-36" value="" style="endArrow=open;endFill=1;endSize=6;html=1;rounded=0;fontSize=12;entryX=0.007;entryY=0.497;entryDx=0;entryDy=0;entryPerimeter=0;exitX=0.996;exitY=0.428;exitDx=0;exitDy=0;exitPerimeter=0;jumpSize=6;" parent="1" source="co63qGfx2RiiY_eD4GLx-35" target="co63qGfx2RiiY_eD4GLx-34" edge="1">
          <mxGeometry width="160" relative="1" as="geometry">
            <mxPoint x="260" y="349.76" as="sourcePoint" />
            <mxPoint x="350" y="350" as="targetPoint" />
          </mxGeometry>
        </mxCell>
        <mxCell id="co63qGfx2RiiY_eD4GLx-46" style="edgeStyle=orthogonalEdgeStyle;rounded=0;orthogonalLoop=1;jettySize=auto;html=1;exitX=0.5;exitY=0;exitDx=0;exitDy=0;entryX=0.488;entryY=1.032;entryDx=0;entryDy=0;entryPerimeter=0;endArrow=diamondThin;endFill=0;" parent="1" source="co63qGfx2RiiY_eD4GLx-37" target="co63qGfx2RiiY_eD4GLx-17" edge="1">
          <mxGeometry relative="1" as="geometry" />
        </mxCell>
        <mxCell id="co63qGfx2RiiY_eD4GLx-47" value="&lt;font style=&quot;font-size: 8px;&quot;&gt;1..n&lt;/font&gt;" style="edgeLabel;html=1;align=center;verticalAlign=middle;resizable=0;points=[];" parent="co63qGfx2RiiY_eD4GLx-46" vertex="1" connectable="0">
          <mxGeometry x="0.5469" relative="1" as="geometry">
            <mxPoint x="12" as="offset" />
          </mxGeometry>
        </mxCell>
        <mxCell id="co63qGfx2RiiY_eD4GLx-48" value="1" style="edgeLabel;html=1;align=center;verticalAlign=middle;resizable=0;points=[];fontSize=8;" parent="co63qGfx2RiiY_eD4GLx-46" vertex="1" connectable="0">
          <mxGeometry x="-0.551" y="-1" relative="1" as="geometry">
            <mxPoint x="11" as="offset" />
          </mxGeometry>
        </mxCell>
        <mxCell id="co63qGfx2RiiY_eD4GLx-37" value="Комплектующее изделие" style="swimlane;fontStyle=0;align=center;verticalAlign=top;childLayout=stackLayout;horizontal=1;startSize=26;horizontalStack=0;resizeParent=1;resizeLast=0;collapsible=1;marginBottom=0;rounded=0;shadow=0;strokeWidth=1;" parent="1" vertex="1">
          <mxGeometry x="630" y="280" width="160" height="216" as="geometry">
            <mxRectangle x="130" y="380" width="160" height="26" as="alternateBounds" />
          </mxGeometry>
        </mxCell>
        <mxCell id="co63qGfx2RiiY_eD4GLx-38" value="Наименование" style="text;align=left;verticalAlign=top;spacingLeft=4;spacingRight=4;overflow=hidden;rotatable=0;points=[[0,0.5],[1,0.5]];portConstraint=eastwest;" parent="co63qGfx2RiiY_eD4GLx-37" vertex="1">
          <mxGeometry y="26" width="160" height="26" as="geometry" />
        </mxCell>
        <mxCell id="co63qGfx2RiiY_eD4GLx-39" value="Производитель" style="text;align=left;verticalAlign=top;spacingLeft=4;spacingRight=4;overflow=hidden;rotatable=0;points=[[0,0.5],[1,0.5]];portConstraint=eastwest;rounded=0;shadow=0;html=0;" parent="co63qGfx2RiiY_eD4GLx-37" vertex="1">
          <mxGeometry y="52" width="160" height="26" as="geometry" />
        </mxCell>
        <mxCell id="co63qGfx2RiiY_eD4GLx-40" value="Цена" style="text;align=left;verticalAlign=top;spacingLeft=4;spacingRight=4;overflow=hidden;rotatable=0;points=[[0,0.5],[1,0.5]];portConstraint=eastwest;" parent="co63qGfx2RiiY_eD4GLx-37" vertex="1">
          <mxGeometry y="78" width="160" height="26" as="geometry" />
        </mxCell>
        <mxCell id="co63qGfx2RiiY_eD4GLx-42" value="Описание" style="text;align=left;verticalAlign=top;spacingLeft=4;spacingRight=4;overflow=hidden;rotatable=0;points=[[0,0.5],[1,0.5]];portConstraint=eastwest;fontStyle=0" parent="co63qGfx2RiiY_eD4GLx-37" vertex="1">
          <mxGeometry y="104" width="160" height="26" as="geometry" />
        </mxCell>
        <mxCell id="co63qGfx2RiiY_eD4GLx-41" value="" style="line;html=1;strokeWidth=1;align=left;verticalAlign=middle;spacingTop=-1;spacingLeft=3;spacingRight=3;rotatable=0;labelPosition=right;points=[];portConstraint=eastwest;" parent="co63qGfx2RiiY_eD4GLx-37" vertex="1">
          <mxGeometry y="130" width="160" height="8" as="geometry" />
        </mxCell>
        <mxCell id="co63qGfx2RiiY_eD4GLx-43" value="Добавление новго товара" style="text;align=left;verticalAlign=top;spacingLeft=4;spacingRight=4;overflow=hidden;rotatable=0;points=[[0,0.5],[1,0.5]];portConstraint=eastwest;fontStyle=0" parent="co63qGfx2RiiY_eD4GLx-37" vertex="1">
          <mxGeometry y="138" width="160" height="26" as="geometry" />
        </mxCell>
        <mxCell id="co63qGfx2RiiY_eD4GLx-44" value="Удалить товар" style="text;align=left;verticalAlign=top;spacingLeft=4;spacingRight=4;overflow=hidden;rotatable=0;points=[[0,0.5],[1,0.5]];portConstraint=eastwest;fontStyle=0" parent="co63qGfx2RiiY_eD4GLx-37" vertex="1">
          <mxGeometry y="164" width="160" height="26" as="geometry" />
        </mxCell>
        <mxCell id="co63qGfx2RiiY_eD4GLx-45" value="Получить информацию" style="text;align=left;verticalAlign=top;spacingLeft=4;spacingRight=4;overflow=hidden;rotatable=0;points=[[0,0.5],[1,0.5]];portConstraint=eastwest;fontStyle=0" parent="co63qGfx2RiiY_eD4GLx-37" vertex="1">
          <mxGeometry y="190" width="160" height="26" as="geometry" />
        </mxCell>
        <mxCell id="co63qGfx2RiiY_eD4GLx-51" value="&lt;font style=&quot;font-size: 8px;&quot;&gt;Учет товаров&lt;/font&gt;" style="shape=umlBoundary;whiteSpace=wrap;html=1;fontSize=12;" parent="1" vertex="1">
          <mxGeometry x="540" y="540" width="80" height="70" as="geometry" />
        </mxCell>
        <mxCell id="co63qGfx2RiiY_eD4GLx-52" value="&lt;font style=&quot;font-size: 8px;&quot;&gt;Завскладом&lt;/font&gt;" style="ellipse;shape=umlControl;whiteSpace=wrap;html=1;fontSize=12;" parent="1" vertex="1">
          <mxGeometry x="675" y="530" width="70" height="80" as="geometry" />
        </mxCell>
        <mxCell id="co63qGfx2RiiY_eD4GLx-53" value="" style="endArrow=open;endFill=1;endSize=6;html=1;rounded=0;fontSize=8;jumpSize=6;exitX=0.491;exitY=0.123;exitDx=0;exitDy=0;exitPerimeter=0;" parent="1" source="co63qGfx2RiiY_eD4GLx-52" target="co63qGfx2RiiY_eD4GLx-45" edge="1">
          <mxGeometry width="160" relative="1" as="geometry">
            <mxPoint x="470" y="420" as="sourcePoint" />
            <mxPoint x="630" y="420" as="targetPoint" />
          </mxGeometry>
        </mxCell>
        <mxCell id="co63qGfx2RiiY_eD4GLx-55" value="" style="endArrow=open;endFill=1;endSize=6;html=1;rounded=0;fontSize=8;jumpSize=6;exitX=0.998;exitY=0.499;exitDx=0;exitDy=0;exitPerimeter=0;entryX=0;entryY=0.563;entryDx=0;entryDy=0;entryPerimeter=0;" parent="1" source="co63qGfx2RiiY_eD4GLx-51" target="co63qGfx2RiiY_eD4GLx-52" edge="1">
          <mxGeometry width="160" relative="1" as="geometry">
            <mxPoint x="719.3700000000001" y="549.8399999999999" as="sourcePoint" />
            <mxPoint x="719.8559113300494" y="506" as="targetPoint" />
          </mxGeometry>
        </mxCell>
        <mxCell id="pPG2TfxvMOnz4XcHd_NR-1" value="&lt;span style=&quot;font-size: 8px;&quot;&gt;Отправка заказа покупателям&lt;/span&gt;" style="shape=umlBoundary;whiteSpace=wrap;html=1;fontSize=12;" parent="1" vertex="1">
          <mxGeometry x="343" y="570" width="80" height="70" as="geometry" />
        </mxCell>
        <mxCell id="GYRK6B8smbQONSBL0gsJ-1" value="&lt;font style=&quot;font-size: 8px;&quot;&gt;Транспортная&lt;br&gt;компания&lt;/font&gt;" style="ellipse;shape=umlControl;whiteSpace=wrap;html=1;" parent="1" vertex="1">
          <mxGeometry x="353" y="450" width="70" height="80" as="geometry" />
        </mxCell>
        <mxCell id="GYRK6B8smbQONSBL0gsJ-2" value="" style="endArrow=open;endFill=1;endSize=6;html=1;rounded=0;fontSize=8;exitX=0.507;exitY=0.998;exitDx=0;exitDy=0;exitPerimeter=0;entryX=0.505;entryY=0.13;entryDx=0;entryDy=0;entryPerimeter=0;" parent="1" source="co63qGfx2RiiY_eD4GLx-34" target="GYRK6B8smbQONSBL0gsJ-1" edge="1">
          <mxGeometry width="160" relative="1" as="geometry">
            <mxPoint x="250" y="450" as="sourcePoint" />
            <mxPoint x="410" y="450" as="targetPoint" />
          </mxGeometry>
        </mxCell>
        <mxCell id="GYRK6B8smbQONSBL0gsJ-3" value="" style="endArrow=open;endFill=1;endSize=6;html=1;rounded=0;fontSize=8;entryX=0.505;entryY=0.104;entryDx=0;entryDy=0;entryPerimeter=0;" parent="1" source="GYRK6B8smbQONSBL0gsJ-1" edge="1">
          <mxGeometry width="160" relative="1" as="geometry">
            <mxPoint x="387.76000000000016" y="503.28000000000003" as="sourcePoint" />
            <mxPoint x="387.76000000000016" y="570" as="targetPoint" />
          </mxGeometry>
        </mxCell>
        <mxCell id="Tr-PWbZYXiWk-YHRKpnP-1" value="Заказ" style="swimlane;fontStyle=0;align=center;verticalAlign=top;childLayout=stackLayout;horizontal=1;startSize=26;horizontalStack=0;resizeParent=1;resizeLast=0;collapsible=1;marginBottom=0;rounded=0;shadow=0;strokeWidth=1;" vertex="1" parent="1">
          <mxGeometry x="20" y="400" width="160" height="140" as="geometry">
            <mxRectangle x="550" y="140" width="160" height="26" as="alternateBounds" />
          </mxGeometry>
        </mxCell>
        <mxCell id="Tr-PWbZYXiWk-YHRKpnP-2" value="Номер заказа" style="text;align=left;verticalAlign=top;spacingLeft=4;spacingRight=4;overflow=hidden;rotatable=0;points=[[0,0.5],[1,0.5]];portConstraint=eastwest;" vertex="1" parent="Tr-PWbZYXiWk-YHRKpnP-1">
          <mxGeometry y="26" width="160" height="26" as="geometry" />
        </mxCell>
        <mxCell id="Tr-PWbZYXiWk-YHRKpnP-12" value="ФИО" style="text;align=left;verticalAlign=top;spacingLeft=4;spacingRight=4;overflow=hidden;rotatable=0;points=[[0,0.5],[1,0.5]];portConstraint=eastwest;" vertex="1" parent="Tr-PWbZYXiWk-YHRKpnP-1">
          <mxGeometry y="52" width="160" height="26" as="geometry" />
        </mxCell>
        <mxCell id="Tr-PWbZYXiWk-YHRKpnP-13" value="Номер телефона" style="text;align=left;verticalAlign=top;spacingLeft=4;spacingRight=4;overflow=hidden;rotatable=0;points=[[0,0.5],[1,0.5]];portConstraint=eastwest;" vertex="1" parent="Tr-PWbZYXiWk-YHRKpnP-1">
          <mxGeometry y="78" width="160" height="26" as="geometry" />
        </mxCell>
        <mxCell id="Tr-PWbZYXiWk-YHRKpnP-5" value="" style="line;html=1;strokeWidth=1;align=left;verticalAlign=middle;spacingTop=-1;spacingLeft=3;spacingRight=3;rotatable=0;labelPosition=right;points=[];portConstraint=eastwest;" vertex="1" parent="Tr-PWbZYXiWk-YHRKpnP-1">
          <mxGeometry y="104" width="160" height="8" as="geometry" />
        </mxCell>
        <mxCell id="Tr-PWbZYXiWk-YHRKpnP-14" value="Получить информацию" style="text;align=left;verticalAlign=top;spacingLeft=4;spacingRight=4;overflow=hidden;rotatable=0;points=[[0,0.5],[1,0.5]];portConstraint=eastwest;" vertex="1" parent="Tr-PWbZYXiWk-YHRKpnP-1">
          <mxGeometry y="112" width="160" height="26" as="geometry" />
        </mxCell>
        <mxCell id="Tr-PWbZYXiWk-YHRKpnP-9" value="&lt;font style=&quot;font-size: 9px;&quot;&gt;1&lt;/font&gt;" style="text;html=1;align=center;verticalAlign=middle;resizable=0;points=[];autosize=1;strokeColor=none;fillColor=none;" vertex="1" parent="1">
          <mxGeometry x="95" y="290" width="30" height="30" as="geometry" />
        </mxCell>
        <mxCell id="Tr-PWbZYXiWk-YHRKpnP-10" value="1..n" style="resizable=0;align=right;verticalAlign=bottom;labelBackgroundColor=none;fontSize=8;" connectable="0" vertex="1" parent="1">
          <mxGeometry x="119.99523809523808" y="400.00476190476195" as="geometry" />
        </mxCell>
      </root>
    </mxGraphModel>
  </diagram>
</mxfile>
